<svg width="29" height="28" viewBox="0 0 29 28" fill="none" xmlns="http://www.w3.org/2000/svg">
<path d="M3.45863 17.9624L1.31046 17.4866C0.680864 18.7618 0.0833893 20.1943 0.0833893 21.8446C0.0833893 23.4633 0.656675 24.8784 1.31046 26.2026L8.57775 24.5932V27.7671L11.1092 26.4964L13.6406 27.7671V24.5949L20.8512 26.2035C21.4759 24.9382 22.0787 23.5019 22.0787 21.8446C22.0787 21.5589 22.0577 21.2746 22.0223 20.9975H28.8855V0.666626H3.45863V17.9624ZM2.27336 24.2543C2.05386 23.6716 1.77101 22.7459 1.77101 21.8446C1.77101 20.9431 2.05391 20.0173 2.27336 19.4348L8.57775 20.831V22.8582L2.27336 24.2543ZM11.953 25.0258L11.1092 24.6022L10.2654 25.0258V20.9974H11.953V25.0258ZM19.8892 24.2533L13.6406 22.8593V20.8299L19.8892 19.4358C20.1086 20.0187 20.3911 20.9438 20.3911 21.8445C20.3911 22.7455 20.1085 23.6708 19.8892 24.2533V24.2533ZM27.1979 2.36086V19.3032H21.6317C21.3551 18.4537 21.1321 18.0526 20.8512 17.4857L12.7042 19.3032H9.5136L5.14626 18.3361V2.36086H27.1979Z" fill="white"/>
<path d="M10.2654 4.05518H22.0787V5.74941H10.2654V4.05518Z" fill="white"/>
<path d="M6.83386 10.832H25.5102V12.5263H6.83386V10.832Z" fill="white"/>
<path d="M10.2654 14.2206H22.0787V15.9148H10.2654V14.2206Z" fill="white"/>
<path d="M11.953 7.4436H13.6406V9.13784H11.953V7.4436Z" fill="white"/>
<path d="M15.3282 7.4436H17.0159V9.13784H15.3282V7.4436Z" fill="white"/>
<path d="M18.7035 7.4436H20.3911V9.13784H18.7035V7.4436Z" fill="white"/>
</svg>
