<svg width="54" height="76" viewBox="0 0 54 76" fill="none" xmlns="http://www.w3.org/2000/svg">
<path d="M26.901 75.3759L5.25844 69.3376L0.435425 14.9715H53.4314L48.6032 69.3294L26.901 75.3759Z" fill="#4353AD"/>
<path d="M44.4699 65.8679L48.5953 19.4168H26.9333V70.7539L44.4699 65.8679" fill="#485FB5"/>
<path d="M26.9333 56.8974L26.9042 56.905L19.5155 54.8999L19.0431 49.5821H12.383L13.3124 60.0515L26.9028 63.8431L26.9333 63.8347V56.8974ZM10.2971 26.0847L10.9002 32.7523H26.9333V26.0847H10.2971ZM11.492 39.5802L12.0866 46.248H26.9333V39.5802H11.492" fill="#EDEDED"/>
<path d="M32.193 0.196919H40.2287V3.13351H35.5536V3.7211H40.2287V10.4752H32.193V7.3915H36.8684V6.80436H32.1933V0.196919H32.193ZM22.5504 0.196919H30.5858V3.13351H25.9107V3.7211H30.5858V10.4752H22.5506V7.3915H27.2257V6.80436H22.5502V0.196919H22.5504ZM12.9078 0.196919H20.9431V3.57398H16.2682V6.95149H20.9435V10.3286H12.9078V0.196919Z" fill="#100F0D"/>
<path d="M42.3323 39.5805L43.5299 26.085H26.9105V32.7526H36.2592L35.6556 39.5805H26.9105V46.2483H35.0803L34.3097 54.8962L26.9103 56.9031V63.8401L40.5113 60.0517L40.6109 58.9254L42.1704 41.371L42.3323 39.5805Z" fill="white"/>
</svg>
