<svg width="29" height="30" viewBox="0 0 29 30" fill="none" xmlns="http://www.w3.org/2000/svg">
<path d="M23.4443 22.6539L22.6954 23.1553L24.4587 25.8106H4.53886L6.63916 22.648H18.0731V21.7444H6.3984C6.32433 21.7444 6.2514 21.7627 6.18608 21.7978C6.12076 21.8329 6.06508 21.8836 6.02397 21.9454L3.32377 26.0116C3.2746 26.0859 3.24831 26.1731 3.24817 26.2624V27.6177C3.24817 27.8574 3.343 28.0872 3.51179 28.2567C3.68059 28.4261 3.90952 28.5213 4.14823 28.5213H24.8497C25.0884 28.5213 25.3174 28.4261 25.4862 28.2567C25.655 28.0872 25.7498 27.8574 25.7498 27.6177V26.2624C25.7497 26.1731 25.7234 26.0859 25.6742 26.0116L23.4443 22.6539ZM4.14823 27.6177V26.7141H24.8497V27.6177H4.14823Z" fill="black"/>
<path d="M23.4997 1.41357H5.49835C5.14061 1.41465 4.79783 1.55779 4.54487 1.81174C4.29191 2.0657 4.14932 2.40982 4.14825 2.76896V14.5157C4.14932 14.8748 4.29191 15.2189 4.54487 15.4729C4.79783 15.7269 5.14061 15.87 5.49835 15.8711H11.7988V17.6783H9.99868C9.87932 17.6783 9.76485 17.7259 9.68046 17.8106C9.59606 17.8953 9.54865 18.0102 9.54865 18.1301V19.9372C9.54865 20.0571 9.59606 20.172 9.68046 20.2567C9.76485 20.3414 9.87932 20.389 9.99868 20.389H18.9993C19.1187 20.389 19.2332 20.3414 19.3176 20.2567C19.4019 20.172 19.4494 20.0571 19.4494 19.9372V18.1301C19.4494 18.0102 19.4019 17.8953 19.3176 17.8106C19.2332 17.7259 19.1187 17.6783 18.9993 17.6783H17.1992V15.8711H23.4997C23.8574 15.87 24.2002 15.7269 24.4531 15.4729C24.7061 15.2189 24.8487 14.8748 24.8498 14.5157V2.76896C24.8487 2.40982 24.7061 2.0657 24.4531 1.81174C24.2002 1.55779 23.8574 1.41465 23.4997 1.41357V1.41357ZM18.5493 18.5818V19.4854H10.4487V18.5818H18.5493ZM12.6989 17.6783V15.8711H16.2991V17.6783H12.6989ZM23.9497 14.5157C23.9497 14.6355 23.9023 14.7504 23.8179 14.8351C23.7335 14.9199 23.619 14.9675 23.4997 14.9675H5.49835C5.379 14.9675 5.26453 14.9199 5.18013 14.8351C5.09573 14.7504 5.04832 14.6355 5.04832 14.5157V13.1603H23.9497V14.5157ZM23.9497 12.2567H5.04832V2.76896C5.04832 2.64914 5.09573 2.53422 5.18013 2.4495C5.26453 2.36477 5.379 2.31717 5.49835 2.31717H23.4997C23.619 2.31717 23.7335 2.36477 23.8179 2.4495C23.9023 2.53422 23.9497 2.64914 23.9497 2.76896V12.2567Z" fill="black"/>
<path d="M21.2495 13.6121H22.1495V14.5157H21.2495V13.6121Z" fill="black"/>
<path d="M10.4487 11.353H12.2488C12.3682 11.353 12.4826 11.3054 12.567 11.2207C12.6514 11.136 12.6989 11.0211 12.6989 10.9012V10.4495H16.2991V10.9012C16.2991 11.0211 16.3465 11.136 16.4309 11.2207C16.5153 11.3054 16.6298 11.353 16.7491 11.353H18.5493C18.6686 11.353 18.7831 11.3054 18.8675 11.2207C18.9519 11.136 18.9993 11.0211 18.9993 10.9012V9.09406C18.9993 8.97424 18.9519 8.85932 18.8675 8.77459C18.7831 8.68986 18.6686 8.64226 18.5493 8.64226H18.0992V5.93148H18.5493C18.6686 5.93148 18.7831 5.88388 18.8675 5.79915C18.9519 5.71443 18.9993 5.59951 18.9993 5.47969V3.6725C18.9993 3.55268 18.9519 3.43776 18.8675 3.35303C18.7831 3.2683 18.6686 3.2207 18.5493 3.2207H16.7491C16.6298 3.2207 16.5153 3.2683 16.4309 3.35303C16.3465 3.43776 16.2991 3.55268 16.2991 3.6725V4.1243H12.6989V3.6725C12.6989 3.55268 12.6514 3.43776 12.567 3.35303C12.4826 3.2683 12.3682 3.2207 12.2488 3.2207H10.4487C10.3293 3.2207 10.2149 3.2683 10.1305 3.35303C10.0461 3.43776 9.99866 3.55268 9.99866 3.6725V5.47969C9.99866 5.59951 10.0461 5.71443 10.1305 5.79915C10.2149 5.88388 10.3293 5.93148 10.4487 5.93148H10.8987V8.64226H10.4487C10.3293 8.64226 10.2149 8.68986 10.1305 8.77459C10.0461 8.85932 9.99866 8.97424 9.99866 9.09406V10.9012C9.99866 11.0211 10.0461 11.136 10.1305 11.2207C10.2149 11.3054 10.3293 11.353 10.4487 11.353ZM18.0992 10.4495H17.1992V9.54586H18.0992V10.4495ZM17.1992 4.1243H18.0992V5.02789H17.1992V4.1243ZM10.8987 4.1243H11.7988V5.02789H10.8987V4.1243ZM11.7988 5.93148H12.2488C12.3682 5.93148 12.4826 5.88388 12.567 5.79915C12.6514 5.71443 12.6989 5.59951 12.6989 5.47969V5.02789H16.2991V5.47969C16.2991 5.59951 16.3465 5.71443 16.4309 5.79915C16.5153 5.88388 16.6298 5.93148 16.7491 5.93148H17.1992V8.64226H16.7491C16.6298 8.64226 16.5153 8.68986 16.4309 8.77459C16.3465 8.85932 16.2991 8.97424 16.2991 9.09406V9.54586H12.6989V9.09406C12.6989 8.97424 12.6514 8.85932 12.567 8.77459C12.4826 8.68986 12.3682 8.64226 12.2488 8.64226H11.7988V5.93148ZM10.8987 9.54586H11.7988V10.4495H10.8987V9.54586Z" fill="black"/>
<path d="M10.4487 24.0034H16.7491V24.907H10.4487V24.0034Z" fill="black"/>
<path d="M27.0414 17.1543L25.7678 15.8757C25.7259 15.8336 25.676 15.8003 25.6212 15.7778C25.5663 15.7553 25.5075 15.7441 25.4483 15.7447C25.3897 15.7441 25.3316 15.7554 25.2774 15.7779C25.2233 15.8004 25.1743 15.8337 25.1332 15.8757L19.0848 21.9478C19.0355 21.9972 18.9985 22.0576 18.9768 22.124L18.6573 23.0818C18.6316 23.1612 18.6281 23.2462 18.6471 23.3274C18.6661 23.4087 18.707 23.4831 18.7653 23.5427L18.1307 24.1842L18.7653 24.8212L19.4043 24.1842C19.4456 24.2259 19.4947 24.2589 19.5488 24.2814C19.6028 24.3039 19.6608 24.3154 19.7194 24.3152C19.7682 24.3147 19.8167 24.3071 19.8634 24.2926L20.8174 23.9719C20.8836 23.9501 20.9438 23.9129 20.9929 23.8634L27.0414 17.7913C27.1252 17.7066 27.1723 17.5921 27.1723 17.4728C27.1723 17.3534 27.1252 17.2389 27.0414 17.1543V17.1543ZM20.4349 23.1496L19.8454 23.3439L19.5978 23.0999L19.7959 22.508L24.1747 18.1121L24.8137 18.7491L20.4349 23.1496ZM25.4483 18.1121L24.8137 17.475L25.4483 16.8335L26.0873 17.475L25.4483 18.1121Z" fill="black"/>
</svg>
