<svg width="30" height="24" viewBox="0 0 30 24" fill="none" xmlns="http://www.w3.org/2000/svg">
<path d="M27.7126 0.192383H2.62694C2.13431 0.193031 1.66204 0.38978 1.3137 0.739486C0.965364 1.08919 0.769383 1.56331 0.768738 2.05787V17.9145C0.769383 18.409 0.965364 18.8831 1.3137 19.2329C1.66204 19.5826 2.13431 19.7793 2.62694 19.78H12.2025L11.5829 21.6454H10.0597C9.93653 21.6454 9.81837 21.6946 9.73125 21.782C9.64413 21.8695 9.59518 21.9881 9.59518 22.1118V23.0446H5.41424C5.29103 23.0446 5.17287 23.0937 5.08575 23.1811C4.99863 23.2686 4.94969 23.3872 4.94969 23.5109C4.94969 23.6346 4.99863 23.7532 5.08575 23.8407C5.17287 23.9282 5.29103 23.9773 5.41424 23.9773H25.8544C25.9776 23.9773 26.0958 23.9282 26.1829 23.8407C26.27 23.7532 26.319 23.6346 26.319 23.5109C26.319 23.3872 26.27 23.2686 26.1829 23.1811C26.0958 23.0937 25.9776 23.0446 25.8544 23.0446H20.7444V22.1118C20.7444 21.9881 20.6954 21.8695 20.6083 21.782C20.5212 21.6946 20.403 21.6454 20.2798 21.6454H18.7567L18.1371 19.78H27.7126C28.2053 19.7793 28.6775 19.5826 29.0259 19.2329C29.3742 18.8831 29.5702 18.409 29.5708 17.9145V2.05787C29.5702 1.56331 29.3742 1.08919 29.0259 0.739486C28.6775 0.38978 28.2053 0.193031 27.7126 0.192383ZM19.8153 22.5782V23.0446H10.5243V22.5782H19.8153ZM12.5625 21.6454L13.1821 19.78H17.1575L17.7771 21.6454H12.5625ZM28.6417 17.9145C28.6414 18.1618 28.5434 18.3988 28.3692 18.5737C28.1951 18.7485 27.9589 18.8469 27.7126 18.8472H2.62694C2.38062 18.8469 2.14449 18.7485 1.97032 18.5737C1.79615 18.3988 1.69816 18.1618 1.69784 17.9145V16.9817H28.6417V17.9145ZM8.64634 11.8517L8.47213 16.049H7.93093L7.75673 11.8517H8.64634ZM7.8206 10.9189L8.13069 9.05343H8.27238L8.58246 10.9189H7.8206ZM8.20153 8.12069C7.69808 8.12069 7.27243 7.48001 7.27243 6.72157C7.27243 6.24296 7.75905 5.54749 8.20037 5.05721C8.59814 5.50027 9.13063 6.20857 9.13063 6.72157C9.13063 7.48001 8.70499 8.12069 8.20153 8.12069ZM13.257 7.18794L13.3116 7.29812V7.65432H11.4534V7.29812L11.508 7.18794H13.257ZM11.9725 6.2552L12.3825 5.43264L12.7924 6.2552H11.9725ZM13.3116 8.58706V15.9907C13.3118 16.0102 13.3131 16.0297 13.3156 16.049H11.4493C11.4518 16.0297 11.4532 16.0102 11.4534 15.9907V8.58706H13.3116ZM17.4925 6.72157H18.8862V7.65432H18.4216C18.2984 7.65432 18.1803 7.70345 18.0931 7.79091C18.006 7.87837 17.9571 7.997 17.9571 8.12069C17.9571 8.24438 18.006 8.363 18.0931 8.45046C18.1803 8.53792 18.2984 8.58706 18.4216 8.58706H18.8862V9.5198H17.4925C17.3693 9.5198 17.2512 9.56893 17.164 9.6564C17.0769 9.74386 17.028 9.86248 17.028 9.98617C17.028 10.1099 17.0769 10.2285 17.164 10.3159C17.2512 10.4034 17.3693 10.4525 17.4925 10.4525H18.8862V11.3853H18.4216C18.2984 11.3853 18.1803 11.4344 18.0931 11.5219C18.006 11.6093 17.9571 11.728 17.9571 11.8517C17.9571 11.9753 18.006 12.094 18.0931 12.1814C18.1803 12.2689 18.2984 12.318 18.4216 12.318H18.8862V13.2508H17.4925C17.3693 13.2508 17.2512 13.2999 17.164 13.3874C17.0769 13.4748 17.028 13.5934 17.028 13.7171C17.028 13.8408 17.0769 13.9594 17.164 14.0469C17.2512 14.1344 17.3693 14.1835 17.4925 14.1835H18.8862V16.049H15.6343V4.85609H18.8862V5.78883H17.4925C17.3693 5.78883 17.2512 5.83797 17.164 5.92543C17.0769 6.01289 17.028 6.13151 17.028 6.2552C17.028 6.37889 17.0769 6.49752 17.164 6.58498C17.2512 6.67244 17.3693 6.72157 17.4925 6.72157ZM23.0671 12.318V15.9907C23.0673 16.0102 23.0687 16.0297 23.0712 16.049H21.2049C21.2074 16.0297 21.2087 16.0102 21.2089 15.9907V12.318H23.0671ZM21.2089 11.3853V11.0291L22.138 9.16361L23.0671 11.0291V11.3853H21.2089ZM28.6417 16.049H23.9922C23.9947 16.0297 23.996 16.0102 23.9962 15.9907V10.9189C23.9962 10.8465 23.9795 10.7751 23.9474 10.7102L22.5538 7.91199C22.5151 7.83454 22.4558 7.76942 22.3823 7.72391C22.3089 7.6784 22.2243 7.6543 22.138 7.6543C22.0517 7.6543 21.9671 7.6784 21.8937 7.72391C21.8203 7.76942 21.7609 7.83454 21.7223 7.91199L20.3286 10.7102C20.2966 10.7751 20.2799 10.8465 20.2798 10.9189V15.9907C20.28 16.0102 20.2814 16.0297 20.2839 16.049H19.8153V4.38972C19.8153 4.26603 19.7663 4.14741 19.6792 4.05995C19.5921 3.97248 19.4739 3.92335 19.3507 3.92335H15.1698C15.0466 3.92335 14.9284 3.97248 14.8413 4.05995C14.7542 4.14741 14.7052 4.26603 14.7052 4.38972V16.049H14.2366C14.2391 16.0297 14.2405 16.0102 14.2407 15.9907V7.18794C14.2406 7.11554 14.2239 7.04412 14.1919 6.97924L12.7983 4.18102C12.7596 4.10357 12.7002 4.03845 12.6268 3.99294C12.5534 3.94743 12.4688 3.92333 12.3825 3.92333C12.2962 3.92333 12.2116 3.94743 12.1382 3.99294C12.0647 4.03845 12.0054 4.10357 11.9667 4.18102L10.5731 6.97924C10.541 7.04412 10.5243 7.11554 10.5243 7.18794V15.9907C10.5245 16.0102 10.5258 16.0297 10.5283 16.049H9.40181L9.5946 11.4045C9.59518 11.394 9.5946 11.3835 9.5946 11.3725V11.3585C9.59353 11.3421 9.59159 11.3257 9.5888 11.3095V11.3083L9.15909 8.71939C9.69855 8.31073 10.0597 7.56804 10.0597 6.72157C10.0597 5.523 8.67596 4.19559 8.51801 4.0481C8.43193 3.968 8.3189 3.9235 8.20153 3.9235C8.08417 3.9235 7.97113 3.968 7.88506 4.0481C7.72711 4.19559 6.34333 5.523 6.34333 6.72157C6.34333 7.56804 6.70452 8.31073 7.24398 8.71939L6.81427 11.3083V11.3095C6.81148 11.3257 6.80954 11.3421 6.80847 11.3585V11.3725C6.80847 11.3835 6.80788 11.394 6.80847 11.4045L7.00125 16.049H1.69784V2.05787C1.69816 1.81059 1.79615 1.57353 1.97032 1.39868C2.14449 1.22382 2.38062 1.12545 2.62694 1.12512H27.7126C27.9589 1.12545 28.1951 1.22382 28.3692 1.39868C28.5434 1.57353 28.6414 1.81059 28.6417 2.05787V16.049Z" fill="black"/>
<path d="M5.8788 17.4481H3.0915C2.9683 17.4481 2.85014 17.4972 2.76302 17.5847C2.6759 17.6721 2.62695 17.7907 2.62695 17.9144C2.62695 18.0381 2.6759 18.1567 2.76302 18.2442C2.85014 18.3317 2.9683 18.3808 3.0915 18.3808H5.8788C6.00201 18.3808 6.12017 18.3317 6.20729 18.2442C6.29441 18.1567 6.34335 18.0381 6.34335 17.9144C6.34335 17.7907 6.29441 17.6721 6.20729 17.5847C6.12017 17.4972 6.00201 17.4481 5.8788 17.4481Z" fill="black"/>
<path d="M7.73702 17.4481H7.27247C7.14927 17.4481 7.03111 17.4972 6.94399 17.5847C6.85687 17.6721 6.80792 17.7907 6.80792 17.9144C6.80792 18.0381 6.85687 18.1567 6.94399 18.2442C7.03111 18.3317 7.14927 18.3808 7.27247 18.3808H7.73702C7.86023 18.3808 7.97839 18.3317 8.06551 18.2442C8.15263 18.1567 8.20157 18.0381 8.20157 17.9144C8.20157 17.7907 8.15263 17.6721 8.06551 17.5847C7.97839 17.4972 7.86023 17.4481 7.73702 17.4481Z" fill="black"/>
<path d="M12.3825 9.05341C12.2593 9.05341 12.1412 9.10254 12.054 9.19C11.9669 9.27746 11.918 9.39609 11.918 9.51978V14.6499C11.918 14.7735 11.9669 14.8922 12.054 14.9796C12.1412 15.0671 12.2593 15.1162 12.3825 15.1162C12.5057 15.1162 12.6239 15.0671 12.711 14.9796C12.7981 14.8922 12.8471 14.7735 12.8471 14.6499V9.51978C12.8471 9.39609 12.7981 9.27746 12.711 9.19C12.6239 9.10254 12.5057 9.05341 12.3825 9.05341Z" fill="black"/>
<path d="M22.138 12.7844C22.0148 12.7844 21.8966 12.8335 21.8095 12.921C21.7224 13.0085 21.6735 13.1271 21.6735 13.2508V14.6499C21.6735 14.7736 21.7224 14.8922 21.8095 14.9797C21.8966 15.0671 22.0148 15.1162 22.138 15.1162C22.2612 15.1162 22.3794 15.0671 22.4665 14.9797C22.5536 14.8922 22.6026 14.7736 22.6026 14.6499V13.2508C22.6026 13.1271 22.5536 13.0085 22.4665 12.921C22.3794 12.8335 22.2612 12.7844 22.138 12.7844Z" fill="black"/>
<path d="M3.0915 2.99063H6.8079C6.93111 2.99063 7.04927 2.9415 7.13639 2.85404C7.22351 2.76658 7.27245 2.64795 7.27245 2.52426C7.27245 2.40057 7.22351 2.28195 7.13639 2.19449C7.04927 2.10703 6.93111 2.05789 6.8079 2.05789H3.0915C2.9683 2.05789 2.85014 2.10703 2.76302 2.19449C2.6759 2.28195 2.62695 2.40057 2.62695 2.52426C2.62695 2.64795 2.6759 2.76658 2.76302 2.85404C2.85014 2.9415 2.9683 2.99063 3.0915 2.99063Z" fill="black"/>
<path d="M3.0915 4.3898H4.0206C4.14381 4.3898 4.26197 4.34067 4.34909 4.25321C4.43621 4.16574 4.48515 4.04712 4.48515 3.92343C4.48515 3.79974 4.43621 3.68112 4.34909 3.59366C4.26197 3.5062 4.14381 3.45706 4.0206 3.45706H3.0915C2.9683 3.45706 2.85014 3.5062 2.76302 3.59366C2.6759 3.68112 2.62695 3.79974 2.62695 3.92343C2.62695 4.04712 2.6759 4.16574 2.76302 4.25321C2.85014 4.34067 2.9683 4.3898 3.0915 4.3898Z" fill="black"/>
<path d="M25.3898 15.1163H27.248C27.3712 15.1163 27.4894 15.0672 27.5765 14.9797C27.6636 14.8922 27.7126 14.7736 27.7126 14.6499C27.7126 14.5262 27.6636 14.4076 27.5765 14.3202C27.4894 14.2327 27.3712 14.1836 27.248 14.1836H25.3898C25.2666 14.1836 25.1485 14.2327 25.0614 14.3202C24.9742 14.4076 24.9253 14.5262 24.9253 14.6499C24.9253 14.7736 24.9742 14.8922 25.0614 14.9797C25.1485 15.0672 25.2666 15.1163 25.3898 15.1163Z" fill="black"/>
<path d="M26.7835 13.7171H27.2481C27.3713 13.7171 27.4894 13.668 27.5766 13.5805C27.6637 13.4931 27.7126 13.3745 27.7126 13.2508C27.7126 13.1271 27.6637 13.0085 27.5766 12.921C27.4894 12.8335 27.3713 12.7844 27.2481 12.7844H26.7835C26.6603 12.7844 26.5422 12.8335 26.455 12.921C26.3679 13.0085 26.319 13.1271 26.319 13.2508C26.319 13.3745 26.3679 13.4931 26.455 13.5805C26.5422 13.668 26.6603 13.7171 26.7835 13.7171Z" fill="black"/>
</svg>
