<svg width="30" height="30" viewBox="0 0 30 30" fill="none" xmlns="http://www.w3.org/2000/svg">
<g clip-path="url(#clip0_11_59)">
<path d="M26.6282 4.44244H13.6672V5.40628H26.6282V4.44244Z" fill="black"/>
<path d="M21.8278 6.37006H13.6672V7.33389H21.8278V6.37006Z" fill="black"/>
<path d="M21.8278 8.29779H13.6672V9.26162H21.8278V8.29779Z" fill="black"/>
<path d="M26.6282 2.51477H17.5075V3.4786H26.6282V2.51477Z" fill="black"/>
<path d="M16.5475 2.51477H15.5874V3.4786H16.5475V2.51477Z" fill="black"/>
<path d="M15.5874 19.3818H14.6273V20.3457H15.5874V19.3818Z" fill="black"/>
<path d="M8.72622 3.33744L8.04745 2.65601L7.08738 3.61984C6.89999 3.80803 6.89999 4.11308 7.08738 4.30127L8.04745 5.2651L8.72622 4.58367L8.10554 3.96055L8.72622 3.33744Z" fill="black"/>
<path d="M12.5665 3.61984L11.6064 2.65601L10.9277 3.33744L11.5484 3.96055L10.9277 4.58367L11.6064 5.2651L12.5665 4.30127C12.7539 4.11308 12.7539 3.80803 12.5665 3.61984Z" fill="black"/>
<path d="M9.85189 2.36179L8.89093 5.25323L9.8012 5.55814L10.7622 2.66669L9.85189 2.36179Z" fill="black"/>
<path d="M25.6681 15.0445V11.1892H24.7081V15.0445H23.748V10.2253H22.7879V15.0445H21.8279V12.6349H20.8678V15.0445H19.9077V12.153H18.9477V15.0445H17.9876V13.1168H17.0275V15.0445H16.0674V16.0083H26.6282V15.0445H25.6681Z" fill="black"/>
<path d="M26.1481 0.105164H4.06655C2.47649 0.10673 1.1879 1.40037 1.18634 2.99666V12.4548V12.4591V17.9361V19.3818C1.1879 20.9781 2.47649 22.2718 4.06655 22.2733H10.0103L8.0902 26.1287H5.50665C4.7113 26.1287 4.06655 26.7759 4.06655 27.5744C4.06655 28.3729 4.7113 29.0202 5.50665 29.0202H24.708C25.5034 29.0202 26.1481 28.3729 26.1481 27.5744C26.1481 26.7759 25.5034 26.1287 24.708 26.1287H22.1245L20.2044 22.2733H26.1481C27.7382 22.2718 29.0268 20.9781 29.0284 19.3818V2.99666C29.0268 1.40037 27.7382 0.10673 26.1481 0.105164ZM2.14641 6.88573L3.23753 8.18979C3.32874 8.29889 3.46339 8.36184 3.60524 8.36184H5.07462C5.21647 8.36184 5.35112 8.29889 5.44233 8.18979L6.53393 6.88573L7.61113 7.23705L7.73017 8.93484C7.74001 9.07682 7.8119 9.20718 7.92651 9.29097L9.11555 10.1584C9.23058 10.2418 9.37627 10.2702 9.51398 10.236L11.1619 9.82494L11.8282 10.7449L10.9301 12.1907C10.8557 12.3119 10.8385 12.4599 10.883 12.595L11.3376 13.9979C11.3814 14.1331 11.4824 14.2422 11.6137 14.2957L13.1872 14.9361V16.0735L11.6127 16.7139C11.4811 16.7672 11.3799 16.8765 11.3367 17.0122L11.1927 17.4542H8.42718C9.50294 15.193 8.54911 12.4845 6.29679 11.4045C4.97387 10.7702 3.4266 10.8194 2.14641 11.5367V6.88573ZM2.14641 12.6832C3.69908 11.4671 5.93976 11.745 7.15101 13.3038C8.08624 14.5072 8.15842 16.1737 7.33079 17.4542H2.14641V12.6832ZM24.708 27.0925C24.9731 27.0925 25.1881 27.3083 25.1881 27.5744C25.1881 27.8405 24.9731 28.0563 24.708 28.0563H5.50665C5.24155 28.0563 5.02662 27.8405 5.02662 27.5744C5.02662 27.3083 5.24155 27.0925 5.50665 27.0925H24.708ZM21.0511 26.1287H9.16356L11.0837 22.2733H19.131L21.0511 26.1287ZM28.0683 19.3818C28.0683 20.4464 27.2086 21.3095 26.1481 21.3095H4.06655C3.00609 21.3095 2.14641 20.4464 2.14641 19.3818V18.418H7.58136H7.58568H28.0683V19.3818ZM28.0683 17.4542H12.3495L13.8477 16.8445C14.0287 16.7708 14.1472 16.5944 14.1473 16.3983V14.6109C14.1473 14.4146 14.0289 14.2379 13.8477 14.1641L12.1791 13.4865L11.8633 12.5107L12.8147 10.9782C12.9179 10.8117 12.9103 10.599 12.7955 10.4403L11.749 8.99459C11.6341 8.83574 11.4348 8.76273 11.245 8.81002L9.49958 9.24375L8.67488 8.64231L8.54863 6.84477C8.53489 6.64881 8.40402 6.4808 8.21789 6.4202L6.52577 5.86792C6.33957 5.8084 6.13604 5.86714 6.00973 6.01683L4.85429 7.39752H3.83037L2.67445 6.01683C2.54808 5.86696 2.34424 5.80816 2.15793 5.86792L2.14641 5.87226V2.99666C2.14641 1.93205 3.00609 1.069 4.06655 1.069H26.1481C27.2086 1.069 28.0683 1.93205 28.0683 2.99666V17.4542Z" fill="black"/>
</g>
<defs>
<clipPath id="clip0_11_59">
<rect width="28.8021" height="28.915" fill="white" transform="translate(0.706299 0.105164)"/>
</clipPath>
</defs>
</svg>
