<svg width="24" height="24" viewBox="0 0 24 24" fill="none" xmlns="http://www.w3.org/2000/svg">
<path d="M0.0605155 3.77992L0.0605162 20.135C0.0605163 22.0032 1.57481 23.5234 3.43576 23.5234L19.7269 23.5234C21.5879 23.5234 23.1022 22.0032 23.1022 20.135L23.1022 13.3128L14.9566 13.3128L14.9566 16.0236L10.9063 16.0236L10.9063 13.3128L8.1611 13.3128C5.92764 13.3128 4.11081 11.4889 4.11081 9.24666L4.11081 5.13531L8.1611 5.13531L8.1611 9.24666L10.9063 9.24666L10.9063 5.13531L14.9566 5.81301L14.9566 9.24666L23.1022 9.24666L23.1022 3.77992C23.1022 1.91167 21.5879 0.391446 19.7269 0.391446L3.43576 0.391447C1.5748 0.391447 0.0605154 1.91167 0.0605155 3.77992Z" fill="black"/>
</svg>
