<svg width="22" height="24" viewBox="0 0 22 24" fill="none" xmlns="http://www.w3.org/2000/svg">
<path d="M0.0605159 11.9188C0.0605161 18.309 5.08553 23.4848 11.283 23.4848C16.2424 23.4848 20.448 20.1711 21.9307 15.5766C22.0364 14.9983 21.689 14.7862 21.3911 14.7862C21.1246 14.7862 20.4185 14.7958 19.483 14.8007C20.1596 18.0179 17.9773 18.6965 17.9773 18.6965C16.6821 19.2227 16.3357 19.9832 16.3357 19.9832C15.64 21.0309 15.6542 19.9022 15.6542 19.9022C15.7323 18.7408 16.8106 18.1307 16.8106 18.1307C18.5265 17.0994 18.0306 15.4233 17.7442 14.7621C17.018 14.658 16.5241 14.3602 16.2433 14.0296C15.9626 16.5982 14.9976 19.2979 10.6977 19.2979C9.4729 19.2979 8.4717 18.8497 7.68654 18.1076C7.40293 18.2377 6.26184 18.628 4.71627 18.0064C4.71627 18.0064 4.41553 17.0377 5.86688 14.8257C5.61753 13.9004 5.49381 12.9173 5.4881 11.9342C5.49381 10.9511 5.61753 9.96801 5.86688 9.04273C4.41553 6.84519 4.71627 5.87654 4.71627 5.87654C6.26184 5.25487 7.40293 5.64522 7.68654 5.76088C8.4717 5.02355 9.4729 4.57537 10.6977 4.57537C15.009 4.57537 15.9578 7.27891 16.2338 9.85235C16.5707 9.44754 17.2588 9.07164 18.3104 9.07164C19.8122 9.07164 21.019 9.0861 21.3835 9.0861C21.6776 9.0861 22.0288 8.8837 21.9165 8.29094C20.4432 3.66358 16.2348 0.352811 11.283 0.352811C5.08553 0.352812 0.0605156 5.53149 0.0605159 11.9188Z" fill="#212121"/>
</svg>
