<svg width="54" height="76" viewBox="0 0 54 76" fill="none" xmlns="http://www.w3.org/2000/svg">
<path d="M5.19507 69.3376L0.395828 14.9713H53.132L48.3275 69.329L26.7316 75.3759L5.19507 69.3376Z" fill="#E53D20"/>
<path d="M26.7639 70.7539L44.2145 65.8677L48.3202 19.4165H26.7639V70.7539Z" fill="#F15123"/>
<path d="M26.7639 39.5803H18.0278L17.4244 32.7523H26.7639V26.0845H26.7411H10.2091L10.3672 27.8733L11.9899 46.2479H26.7639V39.5803Z" fill="#EDEDED"/>
<path d="M26.7639 56.8971L26.735 56.9049L19.3824 54.8997L18.9121 49.5819H15.3394H12.2848L13.2098 60.0513L26.7335 63.8429L26.7639 63.8344V56.8971Z" fill="#EDEDED"/>
<path d="M5.30235 0.196972H8.65748V3.54477H11.7265V0.196972H15.0818V10.335H11.7266V6.94023H8.65762V10.335H5.30259V0.196972H5.30235Z" fill="#100F0D"/>
<path d="M19.4938 3.5589H16.5401V0.196972H25.804V3.5589H22.849V10.335H19.494V3.5589H19.4938Z" fill="#100F0D"/>
<path d="M27.2743 0.196972H30.7727L32.9247 3.75913L35.0745 0.196972H38.5743V10.335H35.233V5.31L32.9247 8.91467H32.8671L30.5572 5.31V10.335H27.2743V0.196972Z" fill="#100F0D"/>
<path d="M40.244 0.196972H43.6002V6.98397H48.3183V10.335H40.244V0.196972Z" fill="#100F0D"/>
<path d="M26.7411 39.5803V46.2479H34.8707L34.1044 54.8955L26.7411 56.9028V63.8397L40.2755 60.0513L40.3748 58.9249L41.9263 41.3707L42.0873 39.5803H40.3083H26.7411Z" fill="white"/>
<path d="M26.7411 26.0846V32.7524H42.6669H42.688L42.8205 31.2537L43.1213 27.8734L43.2792 26.0846H26.7411" fill="white"/>
</svg>
