<svg width="24" height="25" viewBox="0 0 24 25" fill="none" xmlns="http://www.w3.org/2000/svg">
<path d="M0.0605157 8.10115L0.060516 16.7756C0.0605162 20.7674 3.28491 24.0044 7.26104 24.0044L15.9017 24.0044C19.8778 24.0044 23.1022 20.7674 23.1022 16.7756L23.1022 8.10115C23.1022 4.10944 19.8778 0.872403 15.9017 0.872403L7.26104 0.872404C3.28491 0.872404 0.0605155 4.10944 0.0605157 8.10115ZM15.9017 3.04103C18.6811 3.04103 20.942 5.31085 20.942 8.10115L20.942 16.7756C20.942 19.5659 18.6811 21.8358 15.9017 21.8358L7.26104 21.8358C4.48164 21.8358 2.22067 19.5659 2.22067 16.7756L2.22067 8.10115C2.22067 5.31085 4.48164 3.04103 7.26104 3.04103L15.9017 3.04103Z" fill="black"/>
<path d="M5.82092 12.4384C5.82092 15.6321 8.40015 18.2214 11.5813 18.2214C14.7625 18.2214 17.3418 15.6321 17.3418 12.4384C17.3418 9.24478 14.7625 6.65544 11.5813 6.65544C8.40015 6.65544 5.82092 9.24478 5.82092 12.4384ZM15.1816 12.4384C15.1816 14.4307 13.5658 16.0528 11.5813 16.0528C9.59544 16.0528 7.98108 14.4307 7.98108 12.4384C7.98108 10.4462 9.59544 8.82406 11.5813 8.82406C13.5658 8.82406 15.1816 10.4462 15.1816 12.4384Z" fill="black"/>
<path d="M6.15645 6.22173C6.15645 5.79614 5.8128 5.45114 5.38888 5.45114C4.96496 5.45114 4.62131 5.79614 4.62131 6.22173C4.62131 6.64731 4.96496 6.99231 5.38888 6.99231C5.8128 6.99231 6.15645 6.64731 6.15645 6.22173Z" fill="black"/>
</svg>
