<svg width="187" height="43" viewBox="0 0 187 43" fill="none" xmlns="http://www.w3.org/2000/svg">
<path fill-rule="evenodd" clip-rule="evenodd" d="M178.365 3.67627L186.16 3.71927C186.16 3.71927 171.668 23.4336 170.484 25.0404C170.1 25.5607 169.516 26.1218 169.22 26.8173C168.472 28.5659 167.703 32.4014 167.703 32.4014L160.571 32.4369C160.571 32.4369 161.681 28.4391 161.635 26.3096C161.595 24.4491 160.649 22.5912 160.118 20.7254C159.582 18.837 158.854 15.1413 158.854 15.1413H166.186L167.198 19.2025L178.365 3.67627Z" fill="#1A1918"/>
<path fill-rule="evenodd" clip-rule="evenodd" d="M163.605 7.83374C165.044 8.70448 165.926 13.5068 165.926 13.5068C165.926 13.5068 158.399 13.6182 154.303 13.6182H150.764L146.465 32.4013H139.892C139.892 32.4013 143.983 11.9889 144.949 8.2881C145.262 7.09022 147.093 7.29554 150.185 7.29554H155.122C158.311 7.29554 162.037 6.88705 163.605 7.83374Z" fill="#1A1918"/>
<path fill-rule="evenodd" clip-rule="evenodd" d="M133.002 16.9817C133.002 16.9817 133.207 15.776 132.307 14.3799C131.538 13.1896 130.828 12.913 128.805 12.8495C123.094 12.6693 123.205 16.9183 123.205 16.9183L133.002 16.9817ZM139.197 12.116C140.034 15.1468 138.438 22.2688 138.438 22.2688C138.438 22.2688 130.107 22.1291 125.544 22.2688C124.125 22.3122 122.426 22.114 122.004 22.7766C121.41 23.7054 122.221 25.1347 122.909 25.7385C123.701 26.434 125.243 26.5128 125.797 26.5838C129.5 27.0561 137.252 26.7056 137.252 26.7056L135.91 32.6753C135.91 32.6753 124.955 33.2264 119.476 31.9139C118.394 31.6552 117.38 31.1324 116.695 30.391C116.508 30.1882 116.345 29.9116 116.168 29.6729C116.027 29.4823 115.615 28.8556 115.43 28.3604C114.179 25.0125 115.577 18.5985 116.947 15.1618C117.106 14.7633 117.306 14.2585 117.517 13.8292C117.779 13.2939 118.002 12.6897 118.212 12.3697C118.353 12.149 118.528 12.0067 118.674 11.7986C118.844 11.5524 119.041 11.3137 119.223 11.1009C119.728 10.5118 120.302 10.0954 120.993 9.57801C123.276 7.86199 127.407 6.52938 132.37 7.03963C134.239 7.23241 137.06 7.90248 138.438 9.83171C138.807 10.347 138.989 11.3696 139.197 12.116Z" fill="#1A1918"/>
<path fill-rule="evenodd" clip-rule="evenodd" d="M109.046 7.27272L115.42 7.23474C115.42 7.23474 111.868 24.152 110.058 32.4014H102.726C97.6008 32.4014 93.0371 33.0385 91.0954 29.3553C89.2119 25.7792 91.0094 19.898 91.8539 15.9026C92.4507 13.0751 93.7074 7.29566 93.7074 7.29566L100.311 7.23474C100.311 7.23474 98.4453 16.2327 97.669 20.7253C97.3909 22.3346 96.8173 23.8499 97.4163 25.0403C97.9852 26.1726 98.7815 26.2536 101.209 26.3095C101.977 26.3274 104.496 26.3095 104.496 26.3095L109.046 7.27272Z" fill="#1A1918"/>
<path fill-rule="evenodd" clip-rule="evenodd" d="M79.2123 19.4561C79.8798 17.0754 80.8531 14.494 80.7293 12.3491C80.5954 10.0548 78.6791 7.96571 77.4427 7.52676C73.7185 6.20669 70.2321 8.05207 68.8465 9.55704C67.0536 11.5067 66.4469 13.7835 65.8122 16.9181C65.3397 19.2454 64.9528 21.7025 65.8122 23.5174C67.3342 26.7259 72.0799 26.0253 77.1896 26.0558C77.9481 24.0151 78.5752 21.7229 79.2123 19.4561ZM88.0616 10.0648C88.7897 15.3798 85.9961 21.246 84.0719 26.3475C86.0339 26.5252 87.7532 26.3199 87.8771 26.4668C88.0059 26.6574 86.5622 32.5562 86.0589 32.5712C84.5016 32.6121 79.3415 32.6551 77.1896 32.6551C70.1685 32.6551 63.6 33.1144 60.2503 29.6093C58.89 28.1853 57.9495 25.7433 57.7218 24.0252C57.3424 21.1568 57.8178 17.9992 58.4803 15.3952C59.0795 13.0446 59.848 10.8262 61.0087 8.7956C63.9591 3.62531 69.0917 -0.212354 77.6954 0.673427C79.364 0.84614 81.7608 1.57963 83.2577 2.45001C83.3612 2.51128 83.7232 2.80045 83.8063 2.85133C85.829 4.14345 87.6722 7.2272 88.0616 10.0648Z" fill="#1A1918"/>
<path fill-rule="evenodd" clip-rule="evenodd" d="M56.9961 7.30329C56.5714 9.24505 56.1466 11.4459 55.699 13.3647H48.6198C49.1683 11.2377 49.5881 9.12322 50.1367 7.27283C52.4021 7.27283 54.5083 7.30329 56.9961 7.30329Z" fill="#1A1918"/>
<path fill-rule="evenodd" clip-rule="evenodd" d="M48.367 15.1415H55.1933C54.3009 20.1014 52.5338 28.1018 51.1482 33.6705C50.2809 37.1556 49.7019 39.699 47.3555 41.539C47.1456 41.7042 47.0246 41.6257 46.8501 41.793C46.4175 42.2069 44.4176 42.6867 43.3105 42.8082C41.5101 43.0038 39.4749 42.8336 37.2627 42.7881C37.8416 40.6636 38.4966 38.1127 39.0124 36.2089C44.4052 36.8639 44.5419 31.7466 45.5859 26.8175C46.1901 23.9695 48.0208 16.2838 48.367 15.1415Z" fill="#1A1918"/>
<path fill-rule="evenodd" clip-rule="evenodd" d="M32.4384 28.0863L32.2921 28.4669C29.799 33.3401 25.382 36.3303 19.0815 36.4622C16.1362 36.5231 13.3297 35.7645 11.4965 34.9393C7.53996 33.1549 4.21234 29.8454 2.39487 26.3094C-0.212122 21.2405 -0.682195 14.1894 4.73845 8.92273C4.82197 8.92273 4.08099 10.0647 4.16451 10.0647L4.01532 10.552C0.109112 22.8293 12.1436 33.3505 23.8422 32.1472C26.6537 31.8581 30.2391 30.3123 32.4384 28.0863Z" fill="#21609B"/>
<path fill-rule="evenodd" clip-rule="evenodd" d="M25.3592 23.0097C28.3025 23.0301 31.3767 21.6491 33.197 19.7102C31.6044 23.769 26.9929 26.3779 20.8084 25.5481C15.6305 24.8525 10.6978 19.6214 10.1895 14.3798C9.81796 10.565 11.1425 8.28823 13.3248 5.52661C12.5663 6.97102 12.2829 8.08506 12.2122 8.79562C11.3831 17.0475 18.7782 22.9667 25.3592 23.0097Z" fill="#21609B"/>
<path fill-rule="evenodd" clip-rule="evenodd" d="M32.9015 12.7604C32.4439 13.8139 29.8094 15.8037 28.6462 16.0523C24.0397 17.0374 21.0894 14.8444 19.5442 12.349C19.3144 11.976 18.8896 10.9584 18.8136 10.6993C18.2143 8.65362 18.4899 5.55948 20.2777 3.95776C19.7391 5.48065 19.6606 7.2497 19.944 8.39957C20.1157 9.09508 20.6389 10.3087 21.1625 11.0723C22.1155 12.4633 22.7198 12.8012 23.9437 13.5398C24.4948 13.8723 25.0862 14.1389 25.3418 14.2123C26.5022 14.5549 28.9521 15.4586 32.9015 12.7604Z" fill="#21609B"/>
</svg>
