<svg width="76" height="76" viewBox="0 0 76 76" fill="none" xmlns="http://www.w3.org/2000/svg">
<path d="M0.474976 0.196899H75.3604V75.3759H0.474976V0.196899Z" fill="#F7DF1E"/>
<path d="M20.1651 63.0219L25.8959 59.5402C27.0014 61.5081 28.0071 63.1731 30.4195 63.1731C32.7319 63.1731 34.1898 62.265 34.1898 58.7328V34.7113H41.2272V58.8327C41.2272 66.1501 36.9546 69.4808 30.7212 69.4808C25.0916 69.4808 21.8237 66.5537 20.165 63.0213" fill="black"/>
<path d="M45.0497 62.2648L50.7797 58.9341C52.2881 61.4071 54.2486 63.2237 57.7169 63.2237C60.6327 63.2237 62.4922 61.7601 62.4922 59.7415C62.4922 57.3192 60.5821 56.4612 57.3649 55.0487L55.606 54.2911C50.5287 52.1216 47.1606 49.3965 47.1606 43.6434C47.1606 38.3446 51.182 34.3073 57.4657 34.3073C61.9396 34.3073 65.1567 35.8718 67.4687 39.9595L61.9895 43.4919C60.783 41.322 59.4764 40.4643 57.4658 40.4643C55.4048 40.4643 54.0977 41.7763 54.0977 43.4919C54.0977 45.6114 55.4048 46.4695 58.4205 47.7817L60.1798 48.5386C66.1617 51.1125 69.5297 53.7364 69.5297 59.6405C69.5297 65.9995 64.5533 69.4812 57.8678 69.4812C51.333 69.4812 47.1105 66.3526 45.0498 62.2648" fill="black"/>
</svg>
