<svg width="185" height="53" viewBox="0 0 185 53" fill="none" xmlns="http://www.w3.org/2000/svg">
<path fill-rule="evenodd" clip-rule="evenodd" d="M172.104 22.2494C171.938 22.2823 171.772 22.6443 171.772 22.8416C171.739 24.1574 171.706 27.6447 171.706 30.0131C171.706 30.079 171.805 30.2104 171.905 30.2104C172.403 30.2434 173.599 30.2763 174.629 30.2763C176.058 30.2763 176.888 30.079 177.354 29.8817C178.55 29.2895 179.114 28.0063 179.114 26.5917C179.114 23.4008 176.855 22.1835 173.499 22.1835C173.267 22.1509 172.603 22.1509 172.104 22.2494ZM180.676 36.9545C180.676 33.6977 178.25 31.8882 173.865 31.8882C173.666 31.8882 172.27 31.8553 171.938 31.9212C171.838 31.9541 171.706 32.02 171.706 32.1188C171.706 34.4543 171.672 38.1718 171.772 39.619C171.838 40.2442 172.304 41.1325 172.868 41.3956C173.466 41.7246 174.829 41.7902 175.759 41.7902C178.384 41.7902 180.676 40.343 180.676 36.9545ZM165.327 20.4402C165.659 20.4402 166.656 20.5387 169.214 20.5387C171.639 20.5387 173.566 20.4731 175.925 20.4731C178.815 20.4731 182.802 21.4928 182.802 25.7693C182.802 27.8749 181.307 29.5527 179.347 30.3751C179.247 30.408 179.247 30.4736 179.347 30.5065C182.138 31.1975 184.596 32.9082 184.596 36.1321C184.596 39.2903 182.603 41.2968 179.712 42.5471C177.951 43.3036 175.759 43.5668 173.533 43.5668C171.838 43.5668 167.287 43.3695 164.762 43.4354C164.496 43.3366 164.994 42.1522 165.227 41.9549C165.825 41.9219 166.29 41.889 166.921 41.6917C167.818 41.4615 167.918 41.1983 168.051 39.8496C168.117 38.6981 168.117 34.6186 168.117 31.7239C168.117 27.7432 168.151 25.0457 168.117 23.7299C168.084 22.7102 167.719 22.3811 166.988 22.1835C166.423 22.085 165.493 21.9533 164.729 21.8548C164.562 21.6901 165.127 20.5716 165.327 20.4402ZM146.156 40.9022C146.954 41.527 148.515 41.7902 149.911 41.7902C151.705 41.7902 153.499 41.4615 155.227 39.9151C156.987 38.3362 158.217 35.9018 158.217 32.02C158.217 28.3024 156.788 25.2759 153.864 23.4996C152.203 22.4796 150.077 22.0521 147.618 22.0521C146.887 22.0521 146.19 22.085 145.758 22.2823C145.658 22.3482 145.425 22.6443 145.425 22.8086C145.359 23.4667 145.359 28.5327 145.359 31.4936C145.359 34.5531 145.359 38.8296 145.425 39.3229C145.425 39.8166 145.658 40.5732 146.156 40.9022ZM138.614 20.4402C139.246 20.4402 141.671 20.5387 142.834 20.5387C144.927 20.5387 146.422 20.4402 150.376 20.4402C153.698 20.4402 156.489 21.3285 158.482 23.0059C160.908 25.0786 162.17 27.9408 162.17 31.4278C162.17 36.3952 159.878 39.2574 157.585 40.9022C155.293 42.58 152.303 43.5668 148.05 43.5668C145.791 43.5668 141.904 43.5009 138.681 43.468H138.648C138.482 43.1722 138.914 42.0207 139.179 41.9878C140.043 41.889 140.276 41.8561 140.708 41.6917C141.405 41.4286 141.538 41.0666 141.638 39.8496C141.738 37.5796 141.704 34.8492 141.704 31.7568C141.704 29.5527 141.738 25.243 141.671 23.8613C141.572 22.7102 141.073 22.4141 140.076 22.2165C139.578 22.118 138.913 21.9862 137.983 21.8877C137.85 21.6572 138.448 20.6375 138.614 20.4402Z" fill="#8E714E"/>
<path fill-rule="evenodd" clip-rule="evenodd" d="M98.414 42.1849C97.5834 42.0861 96.9854 41.9547 96.2542 41.6257C96.1548 41.5598 95.9885 41.2311 95.9885 41.0993C95.9219 39.9479 95.9219 36.6582 95.9219 34.4541C95.9219 32.6775 95.6232 31.1315 94.8588 30.0459C93.9617 28.7956 92.6661 28.072 91.0049 28.072C89.543 28.072 87.5828 29.0591 85.9549 30.4408C85.9216 30.4734 85.6558 30.704 85.6891 30.342C85.6891 29.98 85.7556 29.2564 85.7889 28.763C85.8221 28.3023 85.5564 28.072 85.5564 28.072C84.493 28.5983 81.5029 29.2893 80.4065 29.3878C79.6092 29.5525 79.41 30.3091 80.2406 30.5722H80.2738C81.1706 30.8354 81.7687 31.1315 82.2337 31.4276C82.566 31.6907 82.5328 32.0527 82.5328 32.3488C82.566 34.8161 82.566 38.5991 82.4665 40.6718C82.4333 41.4942 82.2008 41.79 81.6027 41.9218L81.6689 41.8888C81.2039 41.9876 80.8383 42.0861 80.2735 42.152C80.0742 42.3493 80.0742 43.4022 80.2735 43.6325C80.6391 43.6325 82.566 43.5337 84.161 43.5337C86.3537 43.5337 87.4833 43.6325 88.0481 43.6325C88.2807 43.3693 88.3472 42.3822 88.2141 42.152C87.5828 42.1191 87.1178 42.0535 86.686 41.9218C86.0879 41.79 85.9216 41.4942 85.8884 40.8032C85.8221 39.0596 85.8222 35.3753 85.8222 32.8751C85.8222 32.1841 86.0214 31.8551 86.2207 31.6578C86.9847 31.0001 88.2141 30.5393 89.3105 30.5393C90.3736 30.5393 91.0715 30.8683 91.603 31.2961C92.3338 31.888 92.5663 32.7434 92.6661 33.3685C92.8321 34.7831 92.7659 37.5794 92.7659 40.0138C92.7659 41.3296 92.6661 41.6586 92.1678 41.823C91.9353 41.9218 91.3372 42.0535 90.6394 42.1191C90.4069 42.3493 90.4734 43.3693 90.6394 43.5995C91.603 43.5995 92.7326 43.5007 94.3938 43.5007C96.4535 43.5007 97.7827 43.5995 98.3142 43.5995C98.4802 43.4022 98.5467 42.4481 98.4137 42.1849H98.414ZM107.617 29.6184C105.856 29.6184 104.76 30.9671 104.76 33.0724C104.76 35.2107 105.723 37.6779 108.448 37.6779C108.913 37.6779 109.776 37.4806 110.175 37.0202C110.806 36.428 111.238 35.2436 111.238 33.9936C111.238 31.2632 109.876 29.6184 107.617 29.6184ZM107.384 44.1588C106.72 44.1588 106.255 44.3561 105.956 44.5208C104.56 45.4087 103.929 46.2641 103.929 47.2841C103.929 48.238 104.294 48.9945 105.092 49.6526C106.055 50.475 107.384 50.8699 109.079 50.8699C112.467 50.8699 113.963 49.0604 113.963 47.2841C113.963 46.0339 113.331 45.2115 112.036 44.751C111.105 44.3561 109.411 44.1588 107.384 44.1588ZM107.617 52.712C105.59 52.712 104.128 52.2842 102.866 51.3304C101.637 50.4091 101.105 49.0275 101.105 48.0736C101.105 47.8105 101.172 47.0865 101.77 46.4288C102.135 46.0339 102.932 45.2773 104.826 43.9944C104.892 43.9615 104.926 43.9286 104.926 43.8627C104.926 43.7968 104.859 43.731 104.793 43.6983C103.231 43.1062 102.766 42.152 102.633 41.6257V41.5598C102.6 41.3625 102.534 41.1652 102.833 40.9676C103.065 40.8032 103.398 40.606 103.763 40.3757C104.328 40.0467 104.926 39.6847 105.291 39.3886C105.358 39.3228 105.358 39.2572 105.358 39.1913C105.358 39.1255 105.291 39.0596 105.225 39.027C102.899 38.2701 101.736 36.5594 101.736 33.9936C101.736 32.3159 102.5 30.8024 103.863 29.8486C104.793 29.1247 107.118 28.2367 108.647 28.2367H108.747C110.308 28.2693 111.172 28.5983 112.401 29.0262C113.066 29.2564 113.697 29.3549 114.561 29.3549C115.856 29.3549 116.421 28.9603 116.886 28.4999C116.919 28.5654 116.986 28.7301 117.019 29.1576C117.052 29.5854 116.919 30.2103 116.587 30.671C116.321 31.0327 115.724 31.2961 115.126 31.2961H114.959C114.361 31.2303 114.095 31.1644 114.095 31.1644L113.963 31.2303C113.929 31.2961 113.963 31.3617 113.996 31.4605L114.029 31.5264C114.095 31.8225 114.228 32.7105 114.228 32.941C114.228 35.6385 113.132 36.8226 111.969 37.7109C110.84 38.5333 109.544 39.0596 108.082 39.1913C108.049 39.1913 107.916 39.1913 107.617 39.2243C107.451 39.2243 107.218 39.2572 107.185 39.2572H107.152C106.886 39.3228 106.222 39.6518 106.222 40.2111C106.222 40.7044 106.521 41.2966 107.949 41.3954C108.248 41.4284 108.547 41.4284 108.879 41.4613C110.773 41.5927 113.132 41.7574 114.228 42.1191C115.757 42.6783 116.72 44.0271 116.72 45.6393C116.72 48.0736 114.959 50.3436 112.036 51.7579C110.607 52.383 109.178 52.712 107.617 52.712ZM126.555 29.7827C125.857 29.7827 125.225 29.9471 124.76 30.2761C123.465 31.0656 122.8 32.6449 122.8 34.9475C122.8 39.2572 124.993 42.2837 128.116 42.2837C129.046 42.2837 129.777 42.0206 130.408 41.4942C131.372 40.7044 131.87 39.1255 131.87 36.9214C131.87 32.6449 129.711 29.7827 126.555 29.7827ZM127.153 43.8627C121.504 43.8627 119.478 39.7506 119.478 35.9016C119.478 33.2042 120.574 31.1315 122.767 29.651C124.329 28.6971 126.189 28.1708 127.85 28.1708C132.169 28.1708 135.193 31.2303 135.193 35.6385C135.193 38.6321 133.997 41.0005 131.704 42.4481C130.608 43.1717 128.714 43.8627 127.152 43.8627H127.153ZM67.9477 29.7827C67.2499 29.7827 66.6188 29.9471 66.1535 30.2761C64.8579 31.0656 64.1933 32.6449 64.1933 34.9475C64.1933 39.2572 66.386 42.2837 69.5091 42.2837C70.4395 42.2837 71.1703 42.0206 71.8016 41.4942C72.7649 40.7044 73.2635 39.1255 73.2635 36.9214C73.2635 32.6449 71.137 29.7827 67.9477 29.7827ZM68.5458 43.8627C62.8977 43.8627 60.8709 39.7506 60.8709 35.9016C60.8709 33.2042 61.9673 31.1315 64.16 29.651C65.7217 28.6971 67.5822 28.1708 69.2433 28.1708C73.5626 28.1708 76.5859 31.2303 76.5859 35.6385C76.5859 38.6321 75.3898 41.0005 73.0972 42.4481C72.0341 43.1717 70.1405 43.8627 68.5458 43.8627ZM30.571 43.5337C30.5044 43.4352 30.4379 43.1391 30.4712 42.7771C30.4712 42.514 30.5377 42.3493 30.571 42.2837C31.2685 42.1849 31.6341 42.0861 32.0326 41.9876C32.6972 41.823 32.9629 41.4613 32.9962 40.6389C33.096 38.665 33.096 34.9146 33.0627 32.3159V32.25C33.0627 31.9539 33.0627 31.5919 32.6972 31.3288C32.1656 31.0001 31.5343 30.704 30.7037 30.4734C30.4047 30.3749 30.2054 30.2103 30.2387 30.013C30.2387 29.8157 30.4379 29.5854 30.87 29.5196C31.9664 29.4208 34.8234 28.7301 35.953 28.2367C36.0195 28.3023 36.1193 28.4999 36.1193 28.763L36.086 29.1247C36.0528 29.4866 36.0195 29.9145 36.0195 30.342C36.0195 30.4734 36.1526 30.5722 36.2853 30.5722C36.3518 30.5722 36.4183 30.5393 36.4849 30.5064C38.6111 28.8615 40.538 28.2693 41.5346 28.2693C43.1628 28.2693 44.4252 29.0262 45.3888 30.6052C45.455 30.704 45.5215 30.7366 45.6213 30.7366C45.6878 30.7366 45.7873 30.704 45.8206 30.6381C47.7808 29.1576 49.741 28.2693 51.0366 28.2693C54.1265 28.2693 55.9539 30.5393 55.9539 34.3882C55.9539 35.4738 55.9539 36.8884 55.9207 38.1716C55.9207 39.3228 55.8874 40.3757 55.8874 41.1323C55.8874 41.2966 56.1199 41.823 56.4855 41.9218C56.9505 42.152 57.5819 42.2508 58.4124 42.3822H58.4457C58.5122 42.6125 58.3792 43.4678 58.2464 43.6325C58.0469 43.6325 57.7478 43.6325 57.4159 43.5995C56.7845 43.5666 55.8874 43.5337 54.8908 43.5337C52.8308 43.5337 51.7677 43.5666 50.7376 43.6325C50.6714 43.3693 50.6381 42.5798 50.7376 42.3822C51.3357 42.2837 51.6347 42.1849 52.0003 42.0861C52.6649 41.8888 52.8308 41.5927 52.8641 40.7374C52.8641 40.1126 52.9968 34.7831 52.7976 33.4999C52.5983 32.1841 51.6014 30.6381 49.4087 30.6381C48.5781 30.6381 47.2825 30.9671 46.0198 31.921C45.9536 31.9868 45.8871 32.1512 45.8871 32.25V32.2829C46.0198 32.9736 46.0198 33.7634 46.0198 34.9804V37.1187C46.0198 38.5991 45.9866 39.9808 46.0198 41.0335C46.0198 41.7574 46.4519 41.9218 46.8175 42.0535C47.0167 42.0861 47.1495 42.1191 47.3158 42.152C47.6148 42.2179 47.9138 42.2837 48.3789 42.3822C48.4454 42.514 48.4454 42.9415 48.3456 43.3034C48.3123 43.5007 48.2458 43.5995 48.2129 43.6325C47.0832 43.5995 45.9204 43.5666 44.2259 43.5666C43.7276 43.5666 42.8638 43.5995 42.1327 43.5995C41.5346 43.5995 40.9698 43.6325 40.6378 43.6325C40.6045 43.5666 40.538 43.3364 40.538 42.9744C40.538 42.6783 40.6045 42.4481 40.6711 42.3822C40.8371 42.3493 40.9698 42.3167 41.1361 42.3167C41.5346 42.2508 41.8669 42.1849 42.1992 42.1191C42.764 41.9547 42.9633 41.6586 42.9965 40.935C43.0963 39.2901 43.1958 34.5858 42.9633 33.4015C42.5647 31.4934 41.4684 30.5393 39.7074 30.5393C38.6776 30.5393 37.3817 31.0327 36.3186 31.8225C36.1526 31.9539 36.0195 32.2829 36.0195 32.579V34.52C36.0195 36.8884 36.0195 39.8494 36.0528 41.1323C36.086 41.5269 36.2188 41.9876 36.9832 42.152C37.1491 42.1849 37.4149 42.2508 37.7472 42.2837L38.3453 42.3822C38.4118 42.5798 38.3785 43.3693 38.2455 43.6325C37.9132 43.6325 37.5147 43.5995 37.0494 43.5995C36.3518 43.5666 35.4547 43.5337 34.4581 43.5337C33.2952 43.5337 32.4647 43.5666 31.8001 43.5995C31.335 43.5337 30.9695 43.5337 30.571 43.5337Z" fill="#442D22"/>
<path fill-rule="evenodd" clip-rule="evenodd" d="M13.095 51.4293L11.7329 50.9686C11.7329 50.9686 11.8992 44.0931 9.4074 43.5997C7.74622 41.6917 9.67318 -37.3272 15.6533 43.3365C15.6533 43.3365 13.5936 44.3563 13.228 46.0999C12.8292 47.8106 13.095 51.4293 13.095 51.4293Z" fill="white"/>
<path fill-rule="evenodd" clip-rule="evenodd" d="M13.095 51.4293L11.7329 50.9686C11.7329 50.9686 11.8992 44.0931 9.4074 43.5997C7.74622 41.6917 9.67318 -37.3272 15.6533 43.3365C15.6533 43.3365 13.5936 44.3563 13.228 46.0999C12.8292 47.8106 13.095 51.4293 13.095 51.4293Z" fill="#A6A385"/>
<path fill-rule="evenodd" clip-rule="evenodd" d="M13.8262 44.7838C13.8262 44.7838 25.7534 37.02 22.9626 20.8674C20.2716 9.12326 13.9256 5.27432 13.2281 3.79384C12.464 2.74119 11.7329 0.899048 11.7329 0.899048L12.2315 33.5657C12.2315 33.5986 11.2014 43.5665 13.8262 44.7838Z" fill="white"/>
<path fill-rule="evenodd" clip-rule="evenodd" d="M13.8262 44.7838C13.8262 44.7838 25.7534 37.02 22.9626 20.8674C20.2716 9.12326 13.9256 5.27432 13.2281 3.79384C12.464 2.74119 11.7329 0.899048 11.7329 0.899048L12.2315 33.5657C12.2315 33.5986 11.2014 43.5665 13.8262 44.7838Z" fill="#499D4A"/>
<path fill-rule="evenodd" clip-rule="evenodd" d="M11.0353 45.2115C11.0353 45.2115 -0.161161 37.645 0.503433 24.3219C1.13446 10.9985 9.04183 4.45204 10.57 3.26765C11.5669 2.215 11.6001 1.82011 11.6666 0.767456C12.3642 2.24794 12.2314 22.9073 12.3309 25.3416C12.63 34.7173 11.7994 43.4352 11.0353 45.2115Z" fill="white"/>
<path fill-rule="evenodd" clip-rule="evenodd" d="M11.0353 45.2115C11.0353 45.2115 -0.161161 37.645 0.503433 24.3219C1.13446 10.9985 9.04183 4.45204 10.57 3.26765C11.5669 2.215 11.6001 1.82011 11.6666 0.767456C12.3642 2.24794 12.2314 22.9073 12.3309 25.3416C12.63 34.7173 11.7994 43.4352 11.0353 45.2115Z" fill="#58AA50"/>
</svg>
