<svg width="121" height="76" viewBox="0 0 121 76" fill="none" xmlns="http://www.w3.org/2000/svg">
<path d="M59.6135 75.4766C59.2078 75.4766 58.8292 75.366 58.4776 75.1723L54.8804 72.9862C54.3394 72.6818 54.6099 72.5711 54.7722 72.5158C55.5024 72.2667 55.6377 72.2114 56.395 71.7687C56.4761 71.7133 56.5843 71.741 56.6654 71.7963L59.4242 73.4843C59.5324 73.5396 59.6676 73.5396 59.7488 73.4843L70.5404 67.0922C70.6486 67.0368 70.7026 66.9262 70.7026 66.7878V54.0312C70.7026 53.8929 70.6486 53.7822 70.5404 53.7268L59.7488 47.3624C59.6406 47.307 59.5053 47.307 59.4242 47.3624L48.6326 53.7268C48.5244 53.7822 48.4703 53.9205 48.4703 54.0312V66.7878C48.4703 66.8985 48.5244 67.0368 48.6326 67.0922L51.5807 68.8355C53.1764 69.6656 54.1771 68.6971 54.1771 67.7286V55.1381C54.1771 54.9721 54.3124 54.806 54.5017 54.806H55.8811C56.0434 54.806 56.2056 54.9444 56.2056 55.1381V67.7286C56.2056 69.9147 55.0426 71.1876 53.0141 71.1876C52.3921 71.1876 51.9052 71.1876 50.5258 70.4958L47.6859 68.8355C46.9827 68.4204 46.55 67.6456 46.55 66.8155V54.0589C46.55 53.2287 46.9827 52.4539 47.6859 52.0389L58.4776 45.6468C59.1537 45.2594 60.0733 45.2594 60.7495 45.6468L71.5411 52.0389C72.2443 52.4539 72.677 53.2287 72.677 54.0589V66.8155C72.677 67.6456 72.2443 68.4204 71.5411 68.8355L60.7495 75.2276C60.3979 75.3936 59.9922 75.4766 59.6135 75.4766ZM62.9403 66.7048C58.2071 66.7048 57.2334 64.4911 57.2334 62.6094C57.2334 62.4434 57.3686 62.2773 57.558 62.2773H58.9644C59.1267 62.2773 59.2619 62.388 59.2619 62.5541C59.4783 64.0206 60.1004 64.7401 62.9673 64.7401C65.2392 64.7401 66.2129 64.2143 66.2129 62.9691C66.2129 62.2497 65.9424 61.7239 62.3993 61.3642C59.4512 61.0598 57.6121 60.3957 57.6121 57.9882C57.6121 55.7469 59.4512 54.4186 62.5346 54.4186C65.9965 54.4186 67.7005 55.6362 67.9168 58.2926C67.9168 58.3757 67.8898 58.4587 67.8357 58.5417C67.7816 58.597 67.7005 58.6524 67.6193 58.6524H66.2129C66.0777 58.6524 65.9424 58.5417 65.9154 58.4033C65.5908 56.8814 64.7524 56.3833 62.5346 56.3833C60.0463 56.3833 59.7488 57.2688 59.7488 57.9329C59.7488 58.7354 60.1004 58.9844 63.4541 59.4272C66.7809 59.8699 68.3496 60.5064 68.3496 62.8861C68.3225 65.3212 66.3752 66.7048 62.9403 66.7048Z" fill="#539E43"/>
<path d="M26.1297 25.585C26.1297 25.0869 25.8593 24.6165 25.4265 24.3674L13.9588 17.6156C13.7694 17.5049 13.5531 17.4495 13.3367 17.4219H13.2285C13.0121 17.4219 12.7957 17.5049 12.6064 17.6156L1.13864 24.3674C0.705891 24.6165 0.435425 25.0869 0.435425 25.585L0.462471 43.7375C0.462471 43.9865 0.597705 44.2356 0.814078 44.3463C1.03045 44.4846 1.30092 44.4846 1.49024 44.3463L8.306 40.3616C8.73875 40.1125 9.00921 39.6421 9.00921 39.144V30.6489C9.00921 30.1508 9.27968 29.6804 9.71243 29.4313L12.6064 27.7157C12.8228 27.5773 13.0662 27.522 13.3096 27.522C13.5531 27.522 13.7965 27.5773 13.9858 27.7157L16.8798 29.4313C17.3125 29.6804 17.583 30.1508 17.583 30.6489V39.144C17.583 39.6421 17.8535 40.1125 18.2862 40.3616L25.102 44.3463C25.3183 44.4846 25.5888 44.4846 25.8052 44.3463C26.0216 44.2356 26.1568 43.9865 26.1568 43.7375L26.1297 25.585Z" fill="#333333"/>
<path d="M81.2508 0.597541C81.0344 0.486855 80.764 0.486855 80.5746 0.597541C80.3583 0.735899 80.223 0.957271 80.223 1.20631V19.1928C80.223 19.3588 80.1419 19.5249 79.9796 19.6355C79.8173 19.7186 79.6551 19.7186 79.4928 19.6355L76.6258 17.9476C76.1931 17.6985 75.6792 17.6985 75.2465 17.9476L63.7787 24.7271C63.3459 24.9761 63.0755 25.4466 63.0755 25.9447V39.476C63.0755 39.9741 63.3459 40.4445 63.7787 40.6936L75.2465 47.4731C75.6792 47.7221 76.1931 47.7221 76.6258 47.4731L88.0936 40.6936C88.5264 40.4445 88.7968 39.9741 88.7968 39.476V5.74444C88.7968 5.21868 88.5264 4.74827 88.0936 4.49922L81.2508 0.597541ZM80.196 35.0209C80.196 35.1593 80.1419 35.27 80.0337 35.3253L76.1119 37.6497C76.0038 37.705 75.8685 37.705 75.7603 37.6497L71.8386 35.3253C71.7304 35.27 71.6763 35.1316 71.6763 35.0209V30.3721C71.6763 30.2337 71.7304 30.123 71.8386 30.0677L75.7603 27.7433C75.8685 27.688 76.0038 27.688 76.1119 27.7433L80.0337 30.0677C80.1419 30.123 80.196 30.2614 80.196 30.3721V35.0209Z" fill="#333333"/>
<path d="M119.414 30.2614C119.846 30.0123 120.09 29.5419 120.09 29.0438V25.7509C120.09 25.2528 119.819 24.7824 119.414 24.5334L108.027 17.7815C107.594 17.5325 107.08 17.5325 106.648 17.7815L95.1799 24.561C94.7471 24.8101 94.4767 25.2805 94.4767 25.7786V39.31C94.4767 39.808 94.7471 40.2785 95.1799 40.5275L106.566 47.1687C106.999 47.4177 107.513 47.4177 107.919 47.1687L114.816 43.2393C115.032 43.1286 115.167 42.8796 115.167 42.6305C115.167 42.3815 115.032 42.1325 114.816 42.0218L103.294 35.2422C103.077 35.1039 102.942 34.8825 102.942 34.6335V30.3997C102.942 30.1507 103.077 29.9016 103.294 29.7909L106.891 27.6879C107.107 27.5496 107.378 27.5496 107.594 27.6879L111.191 29.7909C111.408 29.9293 111.543 30.1507 111.543 30.3997V33.7203C111.543 33.9694 111.678 34.2184 111.895 34.3291C112.111 34.4674 112.382 34.4674 112.598 34.3291L119.414 30.2614Z" fill="#333333"/>
<path d="M107.162 29.625C107.243 29.5697 107.351 29.5697 107.432 29.625L109.623 30.9256C109.704 30.9809 109.758 31.0639 109.758 31.1746V33.7757C109.758 33.8864 109.704 33.9694 109.623 34.0248L107.432 35.3253C107.351 35.3807 107.243 35.3807 107.162 35.3253L104.971 34.0248C104.89 33.9694 104.836 33.8864 104.836 33.7757V31.1746C104.836 31.0639 104.89 30.9809 104.971 30.9256L107.162 29.625Z" fill="#539E43"/>
<mask id="mask0_15_1923" style="mask-type:alpha" maskUnits="userSpaceOnUse" x="31" y="17" width="27" height="31">
<path d="M45.3058 17.8368C44.8731 17.5878 44.3592 17.5878 43.9264 17.8368L32.5398 24.561C32.107 24.81 31.8636 25.2804 31.8636 25.7785V39.2546C31.8636 39.7527 32.1341 40.2231 32.5398 40.4721L43.9264 47.1963C44.3592 47.4453 44.8731 47.4453 45.3058 47.1963L56.6924 40.4721C57.1252 40.2231 57.3686 39.7527 57.3686 39.2546V25.7785C57.3686 25.2804 57.0981 24.81 56.6924 24.561L45.3058 17.8368Z" fill="white"/>
</mask>
<g mask="url(#mask0_15_1923)">
<path d="M45.3058 17.8368C44.8731 17.5878 44.3592 17.5878 43.9264 17.8368L32.5398 24.561C32.107 24.81 31.8636 25.2804 31.8636 25.7785V39.2546C31.8636 39.7527 32.1341 40.2231 32.5398 40.4721L43.9264 47.1963C44.3592 47.4453 44.8731 47.4453 45.3058 47.1963L56.6924 40.4721C57.1252 40.2231 57.3686 39.7527 57.3686 39.2546V25.7785C57.3686 25.2804 57.0981 24.81 56.6924 24.561L45.3058 17.8368Z" fill="url(#paint0_linear_15_1923)"/>
<path d="M56.7195 24.5603L45.2788 17.8361C45.1706 17.7808 45.0354 17.7254 44.9272 17.6978L32.1071 40.167C32.2152 40.3054 32.3505 40.4161 32.4857 40.4991L43.9264 47.2233C44.251 47.417 44.6297 47.4723 44.9813 47.3616L57.017 24.837C56.9359 24.7263 56.8277 24.6433 56.7195 24.5603Z" fill="url(#paint1_linear_15_1923)"/>
<path fill-rule="evenodd" clip-rule="evenodd" d="M56.7466 40.4724C57.0711 40.2787 57.3145 39.9466 57.4227 39.5869L44.8731 17.6711C44.5485 17.6157 44.1969 17.6434 43.8994 17.8371L32.5398 24.5336L44.7919 47.3903C44.9542 47.3626 45.1435 47.3072 45.3058 47.2242L56.7466 40.4724Z" fill="url(#paint2_linear_15_1923)"/>
<path fill-rule="evenodd" clip-rule="evenodd" d="M56.7465 40.472L45.3329 47.1962C45.1706 47.2792 45.0083 47.3345 44.819 47.3622L45.0353 47.7773L57.6932 40.2783V40.1123L57.3686 39.5588C57.3145 39.9462 57.0711 40.2783 56.7465 40.472Z" fill="url(#paint3_linear_15_1923)"/>
<path fill-rule="evenodd" clip-rule="evenodd" d="M56.7465 40.472L45.3329 47.1962C45.1706 47.2792 45.0083 47.3345 44.819 47.3622L45.0353 47.7773L57.6932 40.2783V40.1123L57.3686 39.5588C57.3145 39.9462 57.0711 40.2783 56.7465 40.472Z" fill="url(#paint4_linear_15_1923)"/>
</g>
<defs>
<linearGradient id="paint0_linear_15_1923" x1="49.2551" y1="22.8494" x2="36.3641" y2="42.6468" gradientUnits="userSpaceOnUse">
<stop stop-color="#41873F"/>
<stop offset="0.3288" stop-color="#418B3D"/>
<stop offset="0.6352" stop-color="#419637"/>
<stop offset="0.9319" stop-color="#3FA92D"/>
<stop offset="1" stop-color="#3FAE2A"/>
</linearGradient>
<linearGradient id="paint1_linear_15_1923" x1="42.8872" y1="34.0941" x2="74.4661" y2="17.3248" gradientUnits="userSpaceOnUse">
<stop offset="0.1376" stop-color="#41873F"/>
<stop offset="0.4032" stop-color="#54A044"/>
<stop offset="0.7136" stop-color="#66B848"/>
<stop offset="0.9081" stop-color="#6CC04A"/>
</linearGradient>
<linearGradient id="paint2_linear_15_1923" x1="31.4477" y1="32.5172" x2="57.7958" y2="32.5172" gradientUnits="userSpaceOnUse">
<stop offset="0.0919165" stop-color="#6CC04A"/>
<stop offset="0.2864" stop-color="#66B848"/>
<stop offset="0.5968" stop-color="#54A044"/>
<stop offset="0.8624" stop-color="#41873F"/>
</linearGradient>
<linearGradient id="paint3_linear_15_1923" x1="31.4477" y1="43.6907" x2="57.7958" y2="43.6907" gradientUnits="userSpaceOnUse">
<stop offset="0.0919165" stop-color="#6CC04A"/>
<stop offset="0.2864" stop-color="#66B848"/>
<stop offset="0.5968" stop-color="#54A044"/>
<stop offset="0.8624" stop-color="#41873F"/>
</linearGradient>
<linearGradient id="paint4_linear_15_1923" x1="61.6344" y1="22.2122" x2="54.6589" y2="57.9384" gradientUnits="userSpaceOnUse">
<stop stop-color="#41873F"/>
<stop offset="0.3288" stop-color="#418B3D"/>
<stop offset="0.6352" stop-color="#419637"/>
<stop offset="0.9319" stop-color="#3FA92D"/>
<stop offset="1" stop-color="#3FAE2A"/>
</linearGradient>
</defs>
</svg>
