<svg width="84" height="76" viewBox="0 0 84 76" fill="none" xmlns="http://www.w3.org/2000/svg">
<path d="M0.640182 38.0225C0.640182 44.303 6.71967 50.1661 16.3045 53.4708C14.3905 63.191 15.9615 71.0255 21.2087 74.0782C26.6023 77.2158 34.6374 75.0439 42.2639 68.3191C49.6979 74.7725 57.2113 77.3122 62.4536 74.2508C67.842 71.104 69.481 62.7383 67.5141 52.7146C77.4971 49.385 83.0814 44.3856 83.0814 38.0225C83.0814 31.8876 76.9906 26.5801 67.5351 23.2964C69.6526 12.8585 67.8584 5.21422 62.394 2.03539C57.1257 -1.02919 49.525 1.64191 41.9817 8.2643C34.1341 1.23515 26.6085 -0.910935 21.1493 2.27715C15.8862 5.35045 14.3843 13.3273 16.3045 23.2274C7.04331 26.4847 0.640182 31.9121 0.640182 38.0225Z" fill="white"/>
<path d="M65.5325 26.5572C64.773 26.2934 63.986 26.0439 63.1756 25.8079C63.3088 25.2596 63.431 24.7184 63.5397 24.1863C65.3238 15.4501 64.1573 8.4121 60.174 6.0949C56.3546 3.87301 50.1081 6.18968 43.7995 11.728C43.1928 12.2606 42.5845 12.8245 41.9764 13.4154C41.5712 13.0244 41.1667 12.6466 40.7632 12.2852C34.1516 6.36322 27.5245 3.86762 23.5451 6.19152C19.7292 8.41986 18.5992 15.0362 20.2052 23.3156C20.3603 24.1153 20.5415 24.932 20.7465 25.7623C19.8086 26.0309 18.9031 26.3172 18.0367 26.6218C10.2853 29.348 5.33491 33.6206 5.33491 38.0525C5.33491 42.6297 10.6492 47.2207 18.7229 50.0045C19.36 50.2241 20.0212 50.4319 20.7025 50.6291C20.4813 51.5271 20.289 52.4071 20.1275 53.2655C18.5962 61.4012 19.7921 67.8612 23.5977 70.0755C27.5286 72.3622 34.1258 70.0117 40.5498 64.3472C41.0575 63.8994 41.567 63.4245 42.0775 62.9268C42.7392 63.5695 43.3998 64.1778 44.0568 64.7484C50.2792 70.1499 56.4248 72.331 60.2269 70.1106C64.1539 67.8173 65.4302 60.8777 63.7733 52.4345C63.6467 51.7896 63.4995 51.1309 63.3341 50.4604C63.7974 50.3222 64.2522 50.1796 64.6957 50.0313C73.0891 47.226 78.5501 42.6908 78.5501 38.0525C78.5501 33.6046 73.44 29.3032 65.5325 26.5572Z" fill="#53C1DE"/>
<path d="M63.712 47.0364C63.3117 47.1701 62.9009 47.2993 62.4823 47.4246C61.5557 44.4654 60.3051 41.3188 58.7748 38.0678C60.2352 34.8943 61.4374 31.7879 62.338 28.8479C63.087 29.0666 63.8139 29.2972 64.5144 29.5405C71.2896 31.8933 75.4224 35.372 75.4224 38.0525C75.4224 40.9076 70.9591 44.614 63.712 47.0364ZM60.705 53.0472C61.4376 56.7807 61.5423 60.1562 61.057 62.795C60.6209 65.1661 59.744 66.7469 58.6597 67.3801C56.3523 68.7273 51.4181 66.9761 46.0967 62.3567C45.4866 61.8271 44.8721 61.2617 44.2557 60.6632C46.3187 58.3872 48.3805 55.7412 50.3929 52.8026C53.9323 52.4857 57.2762 51.9678 60.3087 51.2606C60.458 51.8684 60.5907 52.4644 60.705 53.0472ZM30.2956 67.1472C28.0413 67.9504 26.2459 67.9734 25.1605 67.3421C22.8511 65.9984 21.891 60.8115 23.2006 53.8539C23.3506 53.0571 23.5292 52.2386 23.7349 51.4019C26.7342 52.071 30.0536 52.5524 33.6015 52.8425C35.6274 55.7181 37.7487 58.3612 39.8865 60.6755C39.4195 61.1303 38.9542 61.5634 38.4916 61.9715C35.6509 64.4763 32.8043 66.2534 30.2956 67.1472ZM19.7345 47.0189C16.1644 45.788 13.2161 44.1882 11.1952 42.4425C9.37932 40.8737 8.46251 39.3162 8.46251 38.0525C8.46251 35.3631 12.4372 31.9328 19.0663 29.6012C19.8706 29.3183 20.7127 29.0517 21.5865 28.8013C22.5026 31.8076 23.7045 34.9508 25.1548 38.1292C23.6857 41.3549 22.4668 44.5481 21.5416 47.5897C20.9187 47.4091 20.3152 47.219 19.7345 47.0189ZM23.2747 22.7097C21.8987 15.6161 22.8125 10.265 25.1121 8.92218C27.5615 7.49171 32.9778 9.53126 38.6864 14.6446C39.0513 14.9714 39.4176 15.3135 39.785 15.6674C37.6578 17.9716 35.5558 20.5948 33.5479 23.4534C30.1046 23.7754 26.8085 24.2925 23.778 24.9851C23.5874 24.212 23.4187 23.4523 23.2747 22.7097ZM54.8564 30.5764C54.1319 29.3141 53.3882 28.0816 52.63 26.8828C54.966 27.1807 57.2041 27.5761 59.306 28.0601C58.6749 30.1001 57.8885 32.2332 56.9626 34.4198C56.2985 33.1479 55.5961 31.8655 54.8564 30.5764ZM41.9774 17.9223C43.4201 19.4989 44.8648 21.2593 46.2859 23.1692C44.8539 23.1009 43.4042 23.0654 41.9425 23.0654C40.4946 23.0654 39.0556 23.1002 37.6325 23.1672C39.055 21.275 40.5122 19.5171 41.9774 17.9223ZM29.016 30.5983C28.2923 31.8641 27.6029 33.1396 26.9492 34.4174C26.0384 32.2384 25.2592 30.0957 24.6227 28.0267C26.7116 27.5551 28.9392 27.1695 31.2604 26.8773C30.4915 28.0871 29.7416 29.3287 29.016 30.598V30.5983ZM31.3273 49.4527C28.9291 49.1828 26.668 48.8171 24.5796 48.3585C25.2262 46.2526 26.0226 44.0641 26.9527 41.8381C27.6081 43.115 28.3003 44.391 29.0284 45.6597H29.0285C29.7702 46.9521 30.5385 48.2181 31.3273 49.4527ZM42.064 58.4051C40.5816 56.7916 39.1029 55.0068 37.6588 53.0871C39.0607 53.1425 40.4899 53.1709 41.9425 53.1709C43.4348 53.1709 44.9101 53.137 46.3621 53.0718C44.9364 55.0262 43.4969 56.8137 42.064 58.4051ZM56.9925 41.7247C57.9711 43.9747 58.796 46.1518 59.451 48.2218C57.3282 48.7103 55.0362 49.1038 52.6214 49.3962C53.3814 48.1812 54.1317 46.9275 54.8689 45.638C55.6147 44.3333 56.3229 43.0267 56.9925 41.7247ZM52.1596 44.0617C51.0151 46.0635 49.8402 47.9745 48.6473 49.7783C46.4747 49.9351 44.2302 50.0158 41.9425 50.0158C39.6641 50.0158 37.4478 49.9444 35.3137 49.8046C34.0727 47.9771 32.8722 46.0605 31.735 44.0789H31.7353C30.6011 42.1028 29.5572 40.1099 28.6113 38.1282C29.557 36.1419 30.5981 34.1468 31.7258 32.1741L31.7255 32.1745C32.8562 30.1966 34.0462 28.2893 35.2756 26.4733C37.453 26.3072 39.6858 26.2206 41.9424 26.2206H41.9425C44.2092 26.2206 46.4449 26.3079 48.6216 26.4754C49.8323 28.2782 51.0142 30.1793 52.1493 32.1574C53.2973 34.1578 54.3519 36.1396 55.3056 38.0834C54.3548 40.0605 53.3026 42.0623 52.1596 44.0617ZM58.6117 8.82832C61.0635 10.2546 62.0169 16.0067 60.4765 23.5495C60.3783 24.0308 60.2676 24.521 60.1475 25.0178C57.1099 24.3108 53.8115 23.7847 50.3581 23.4579C48.3463 20.5679 46.2615 17.9405 44.1689 15.6659C44.7315 15.12 45.2933 14.5994 45.8528 14.1081C51.2581 9.36285 56.31 7.48935 58.6117 8.82832Z" fill="white"/>
<path d="M41.9425 31.4573C45.5532 31.4573 48.4804 34.41 48.4804 38.0525C48.4804 41.6948 45.5532 44.6477 41.9425 44.6477C38.3318 44.6477 35.4046 41.6948 35.4046 38.0525C35.4046 34.41 38.3318 31.4573 41.9425 31.4573Z" fill="#53C1DE"/>
</svg>
