<svg width="35" height="36" viewBox="0 0 35 36" fill="none" xmlns="http://www.w3.org/2000/svg">
<path d="M17.3457 35.5437C26.8922 35.5437 34.627 27.7786 34.627 18.1947C34.627 8.61082 26.8922 0.845703 17.3457 0.845703C7.79925 0.845703 0.0644531 8.61082 0.0644531 18.1947C0.0644531 27.7786 7.79925 35.5437 17.3457 35.5437ZM7.97207 17.8188L24.6341 11.3693C25.4074 11.0888 26.0828 11.5587 25.8322 12.7327L25.8337 12.7312L22.9967 26.1492C22.7864 27.1005 22.2233 27.3318 21.4356 26.8837L17.1153 23.6871L15.0315 25.7025C14.801 25.9338 14.6066 26.129 14.1602 26.129L14.4669 21.7151L22.4739 14.4531C22.8224 14.1452 22.3961 13.9717 21.9368 14.2782L12.0418 20.5325L7.77621 19.1966C6.85022 18.9017 6.83006 18.267 7.97207 17.8188V17.8188Z" fill="black"/>
</svg>
