<svg width="23" height="30" viewBox="0 0 23 30" fill="none" xmlns="http://www.w3.org/2000/svg">
<path d="M19.7989 18.9959L18.1085 18.4976L14.4308 16.0861V15.5335C15.4956 14.7272 16.2268 13.4948 16.3627 12.0821C16.8967 11.9958 17.3059 11.5299 17.3059 10.9699V9.45048C17.3059 9.44461 17.3053 9.43885 17.305 9.43297V7.50821C17.5177 7.35527 17.6527 7.10616 17.6527 6.82673V5.06528L20.1907 4.63128C20.6079 4.55995 20.9078 4.22737 20.9373 3.80364C20.9667 3.37991 20.7156 3.00876 20.3124 2.88006L11.7563 0.147929C11.5778 0.0908896 11.3892 0.0909461 11.2108 0.147872L2.65461 2.88006C2.25143 3.00876 2.00032 3.37991 2.02974 3.80359C2.04841 4.0728 2.17656 4.30491 2.37435 4.45694V6.76037H2.35342C1.87161 6.76037 1.47963 7.15388 1.47963 7.63759V8.78097L0.915569 12.1046C0.818081 12.6795 1.25911 13.2056 1.84134 13.2056H3.75111C4.33205 13.2056 4.7746 12.6807 4.67688 12.1046L4.11283 8.78097V7.63759C4.11283 7.15388 3.72085 6.76037 3.23903 6.76037H3.21816V4.70678L5.3161 5.06551V6.82673C5.3161 7.10498 5.45049 7.35369 5.66223 7.50685L5.66302 9.45065V10.9699C5.66302 11.53 6.07216 11.9958 6.60618 12.0821C6.74203 13.494 7.47243 14.7259 8.5362 15.5322V16.0874L4.85932 18.4984L3.17029 18.9962C1.3629 19.5287 0.0867213 21.1945 0.0867213 23.1309V24.3933C0.0867213 24.6272 0.275566 24.8168 0.508627 24.8168C0.741688 24.8168 0.930532 24.6272 0.930532 24.3933V23.1309C0.930532 21.6048 1.94924 20.2387 3.40796 19.8089L4.98173 19.3452L11.269 23.0958C11.3967 23.1719 11.5655 23.176 11.7 23.0958L17.9877 19.3449L19.5613 19.8087C21.0198 20.2386 22.0385 21.6046 22.0385 23.1307V27.2216C22.0385 27.7463 21.6133 28.1732 21.0906 28.1732H19.2311V26.3475C19.2311 26.1135 19.0422 25.9239 18.8091 25.9239C18.5761 25.9239 18.3872 26.1135 18.3872 26.3475V28.1732H4.57979V26.3475C4.57979 26.1135 4.39095 25.9239 4.15789 25.9239C3.92482 25.9239 3.73598 26.1135 3.73598 26.3475V28.1732H1.8783C1.35564 28.1732 0.93042 27.7463 0.93042 27.2216V26.3732C0.93042 26.1393 0.741575 25.9496 0.508514 25.9496C0.275454 25.9496 0.0866089 26.1392 0.0866089 26.3732V27.2215C0.0866089 28.2133 0.890311 29.0202 1.87824 29.0202H21.0905C22.0785 29.0202 22.8822 28.2133 22.8822 27.2215V23.1306C22.8822 21.2398 21.6495 19.5414 19.7989 18.9959V18.9959ZM3.75106 12.3585H1.84134C1.78233 12.3585 1.73733 12.3056 1.74734 12.2468L2.25757 9.24034H3.33483L3.84506 12.2468C3.85501 12.3054 3.81035 12.3585 3.75106 12.3585V12.3585ZM3.26901 7.63759V8.39327H2.32333V7.63759C2.32333 7.62093 2.33677 7.60743 2.35337 7.60743H3.23892C3.25557 7.60737 3.26901 7.62093 3.26901 7.63759V7.63759ZM9.97551 21.1799L10.1434 21.439L5.83611 18.8695L8.57012 17.0768C8.6941 18.5372 9.17361 19.9426 9.97551 21.1799ZM9.97259 19.3515C10.9656 19.4931 12.0026 19.4932 12.9962 19.3515C12.8042 19.8258 12.5676 20.2834 12.2861 20.718L11.4844 21.955L10.6827 20.718C10.4012 20.2834 10.1646 19.8258 9.97259 19.3515V19.3515ZM12.9933 21.1799C13.7952 19.9426 14.2747 18.5372 14.3987 17.0768L17.1327 18.8695L12.8254 21.439L12.9933 21.1799ZM15.4612 7.66594H16.4612V9.02686H15.9649C15.6872 9.02686 15.4612 8.80006 15.4612 8.52125V7.66594H15.4612ZM2.91034 3.6873L11.4666 0.955064C11.4776 0.951562 11.4894 0.951506 11.5006 0.95512L20.0568 3.6873C20.0745 3.69295 20.0987 3.70063 20.0956 3.74474C20.0925 3.78879 20.0675 3.79303 20.0492 3.79619L17.2203 4.27989L16.1582 4.14802C15.9271 4.11928 15.7164 4.2843 15.6877 4.51641C15.6591 4.74857 15.8235 4.96002 16.0547 4.9887L16.809 5.0824V6.81888L6.15986 6.81848V5.08234L10.5256 4.54001C11.1615 4.46112 11.8061 4.46112 12.4416 4.54001L14.0939 4.74519C14.3251 4.77393 14.5358 4.60897 14.5644 4.37686C14.5931 4.14469 14.4288 3.93325 14.1976 3.90451L12.5452 3.69933C11.8411 3.61185 11.1266 3.61185 10.422 3.69933L5.74763 4.28001L2.91788 3.79619C2.89954 3.79303 2.8745 3.78879 2.87141 3.74474C2.86837 3.70063 2.89262 3.6929 2.91034 3.6873V3.6873ZM6.50655 9.02686L6.50599 7.66594H7.50759V8.5213C7.50759 8.80006 7.28167 9.02692 7.00389 9.02692H6.50655V9.02686ZM7.43514 11.8644C7.41342 11.5195 7.12788 11.2493 6.78512 11.2493C6.6316 11.2493 6.50672 11.1239 6.50672 10.9699V9.87398H7.00389C7.74684 9.87398 8.35135 9.26716 8.35135 8.5213V7.66594H14.6174V8.5213C14.6174 9.26716 15.2219 9.87398 15.9649 9.87398H16.4621V10.9699C16.4621 11.1239 16.3372 11.2493 16.1837 11.2493C15.8409 11.2493 15.5554 11.5195 15.5336 11.8644C15.3992 14.0031 13.6206 15.6784 11.4844 15.6784C9.34811 15.6784 7.56953 14.0031 7.43514 11.8644V11.8644ZM11.4844 16.5254C12.2348 16.5254 12.948 16.3532 13.5871 16.0469V16.3154C13.5871 17.0395 13.4898 17.7539 13.3024 18.4429C12.1558 18.6623 10.8595 18.6712 9.66645 18.4429C9.47907 17.7539 9.38175 17.0396 9.38175 16.3154C9.38175 16.3064 9.38051 16.2976 9.37995 16.2888C9.37984 16.287 9.38001 16.2853 9.37989 16.2835V16.0461C10.0194 16.3529 10.7333 16.5254 11.4844 16.5254V16.5254Z" fill="white"/>
</svg>
