<svg width="29" height="28" viewBox="0 0 29 28" fill="none" xmlns="http://www.w3.org/2000/svg">
<path d="M0.072937 0.738251V24.4722H9.31728V26.1692H7.62763V27.8635H21.3203V26.1692H19.6306V24.4722H28.875V0.738251H0.072937ZM17.9429 26.1692H11.005V24.4722H17.9429V26.1692H17.9429ZM27.1873 22.7779H1.76062V19.3852H27.1873V22.7779H27.1873ZM27.1873 17.6909H1.76062V2.4326H27.1873V17.6909H27.1873Z" fill="white"/>
<path d="M11.5455 6.9994L10.3522 5.80135L6.1084 10.0617L10.3522 14.3221L11.5455 13.124L8.49515 10.0617L11.5455 6.9994Z" fill="white"/>
<path d="M18.5958 5.80135L17.4024 6.9994L20.4528 10.0617L17.4024 13.124L18.5958 14.3221L22.8395 10.0617L18.5958 5.80135Z" fill="white"/>
<path d="M14.6259 4.95299L12.6667 14.8408L14.3221 15.1713L16.2813 5.28356L14.6259 4.95299Z" fill="white"/>
</svg>
